<svg width="134" height="50" viewBox="0 0 134 50" fill="none" xmlns="http://www.w3.org/2000/svg">
<path d="M4.3125 49.6895V38.1973H8.01359C8.63183 38.1973 9.18881 38.3423 9.68451 38.6323C10.1858 38.9224 10.5812 39.3191 10.8709 39.8226C11.1605 40.3206 11.3053 40.8815 11.3053 41.5054C11.3053 42.091 11.1772 42.6191 10.921 43.0897C10.6648 43.5603 10.3167 43.9434 9.87667 44.2389C9.44223 44.5344 8.95766 44.7123 8.42297 44.7725L11.3137 49.6895H10.4782L7.59586 44.8135H5.031V49.6895H4.3125ZM5.031 44.1076H7.98017C8.45917 44.1076 8.8964 43.9954 9.29185 43.771C9.6873 43.5412 10.002 43.2292 10.2359 42.8352C10.4698 42.4357 10.5868 41.987 10.5868 41.489C10.5868 40.9855 10.4698 40.5368 10.2359 40.1427C10.002 39.7432 9.6873 39.4313 9.29185 39.2069C8.8964 38.9771 8.45917 38.8622 7.98017 38.8622H5.031V44.1076Z" fill="#131313"/>
<path d="M4.3125 49.6895V38.1973H8.01359C8.63183 38.1973 9.18881 38.3423 9.68451 38.6323C10.1858 38.9224 10.5812 39.3191 10.8709 39.8226C11.1605 40.3206 11.3053 40.8815 11.3053 41.5054C11.3053 42.091 11.1772 42.6191 10.921 43.0897C10.6648 43.5603 10.3167 43.9434 9.87667 44.2389C9.44223 44.5344 8.95766 44.7123 8.42297 44.7725L11.3137 49.6895H10.4782L7.59586 44.8135H5.031V49.6895H4.3125ZM5.031 44.1076H7.98017C8.45917 44.1076 8.8964 43.9954 9.29185 43.771C9.6873 43.5412 10.002 43.2292 10.2359 42.8352C10.4698 42.4357 10.5868 41.987 10.5868 41.489C10.5868 40.9855 10.4698 40.5368 10.2359 40.1427C10.002 39.7432 9.6873 39.4313 9.29185 39.2069C8.8964 38.9771 8.45917 38.8622 7.98017 38.8622H5.031V44.1076Z" fill="black" fill-opacity="0.2"/>
<path d="M4.3125 49.6895V38.1973H8.01359C8.63183 38.1973 9.18881 38.3423 9.68451 38.6323C10.1858 38.9224 10.5812 39.3191 10.8709 39.8226C11.1605 40.3206 11.3053 40.8815 11.3053 41.5054C11.3053 42.091 11.1772 42.6191 10.921 43.0897C10.6648 43.5603 10.3167 43.9434 9.87667 44.2389C9.44223 44.5344 8.95766 44.7123 8.42297 44.7725L11.3137 49.6895H10.4782L7.59586 44.8135H5.031V49.6895H4.3125ZM5.031 44.1076H7.98017C8.45917 44.1076 8.8964 43.9954 9.29185 43.771C9.6873 43.5412 10.002 43.2292 10.2359 42.8352C10.4698 42.4357 10.5868 41.987 10.5868 41.489C10.5868 40.9855 10.4698 40.5368 10.2359 40.1427C10.002 39.7432 9.6873 39.4313 9.29185 39.2069C8.8964 38.9771 8.45917 38.8622 7.98017 38.8622H5.031V44.1076Z" fill="black" fill-opacity="0.2"/>
<path d="M31.0343 49.903C30.0986 49.903 29.2966 49.6786 28.6282 49.2298C27.9654 48.7811 27.4558 48.1791 27.0993 47.4239C26.7484 46.6632 26.573 45.8205 26.573 44.8956V38.1973H27.2915V44.8956C27.2915 45.6782 27.4335 46.3951 27.7176 47.0463C28.0072 47.6975 28.4305 48.2202 28.9875 48.6142C29.55 49.0027 30.2323 49.197 31.0343 49.197C31.8531 49.197 32.5382 49 33.0896 48.606C33.6465 48.2065 34.0671 47.6811 34.3511 47.0299C34.6352 46.3787 34.7772 45.6672 34.7772 44.8956V38.1973H35.4957V44.8956C35.4957 45.5906 35.3954 46.2419 35.1949 46.8493C34.9944 47.4513 34.702 47.9821 34.3177 48.4418C33.9389 48.9015 33.4711 49.2599 32.9141 49.5172C32.3627 49.7744 31.7361 49.903 31.0343 49.903Z" fill="#131313"/>
<path d="M31.0343 49.903C30.0986 49.903 29.2966 49.6786 28.6282 49.2298C27.9654 48.7811 27.4558 48.1791 27.0993 47.4239C26.7484 46.6632 26.573 45.8205 26.573 44.8956V38.1973H27.2915V44.8956C27.2915 45.6782 27.4335 46.3951 27.7176 47.0463C28.0072 47.6975 28.4305 48.2202 28.9875 48.6142C29.55 49.0027 30.2323 49.197 31.0343 49.197C31.8531 49.197 32.5382 49 33.0896 48.606C33.6465 48.2065 34.0671 47.6811 34.3511 47.0299C34.6352 46.3787 34.7772 45.6672 34.7772 44.8956V38.1973H35.4957V44.8956C35.4957 45.5906 35.3954 46.2419 35.1949 46.8493C34.9944 47.4513 34.702 47.9821 34.3177 48.4418C33.9389 48.9015 33.4711 49.2599 32.9141 49.5172C32.3627 49.7744 31.7361 49.903 31.0343 49.903Z" fill="black" fill-opacity="0.2"/>
<path d="M31.0343 49.903C30.0986 49.903 29.2966 49.6786 28.6282 49.2298C27.9654 48.7811 27.4558 48.1791 27.0993 47.4239C26.7484 46.6632 26.573 45.8205 26.573 44.8956V38.1973H27.2915V44.8956C27.2915 45.6782 27.4335 46.3951 27.7176 47.0463C28.0072 47.6975 28.4305 48.2202 28.9875 48.6142C29.55 49.0027 30.2323 49.197 31.0343 49.197C31.8531 49.197 32.5382 49 33.0896 48.606C33.6465 48.2065 34.0671 47.6811 34.3511 47.0299C34.6352 46.3787 34.7772 45.6672 34.7772 44.8956V38.1973H35.4957V44.8956C35.4957 45.5906 35.3954 46.2419 35.1949 46.8493C34.9944 47.4513 34.702 47.9821 34.3177 48.4418C33.9389 48.9015 33.4711 49.2599 32.9141 49.5172C32.3627 49.7744 31.7361 49.903 31.0343 49.903Z" fill="black" fill-opacity="0.2"/>
<path d="M50.8405 49.6895V38.1973H51.6258L58.4348 48.4172V38.1973H59.1533V49.6895H58.3847L51.559 39.4696V49.6895H50.8405Z" fill="#131313"/>
<path d="M50.8405 49.6895V38.1973H51.6258L58.4348 48.4172V38.1973H59.1533V49.6895H58.3847L51.559 39.4696V49.6895H50.8405Z" fill="black" fill-opacity="0.2"/>
<path d="M50.8405 49.6895V38.1973H51.6258L58.4348 48.4172V38.1973H59.1533V49.6895H58.3847L51.559 39.4696V49.6895H50.8405Z" fill="black" fill-opacity="0.2"/>
<path d="M77.045 49.6895L74.054 38.1973H74.7893L77.4878 48.5731L80.178 38.1973H80.7795L83.4781 48.5731L86.1682 38.1973H86.9034L83.9292 49.6895H83.0269L80.4787 39.8965L77.9306 49.6895H77.045Z" fill="#131313"/>
<path d="M77.045 49.6895L74.054 38.1973H74.7893L77.4878 48.5731L80.178 38.1973H80.7795L83.4781 48.5731L86.1682 38.1973H86.9034L83.9292 49.6895H83.0269L80.4787 39.8965L77.9306 49.6895H77.045Z" fill="black" fill-opacity="0.2"/>
<path d="M77.045 49.6895L74.054 38.1973H74.7893L77.4878 48.5731L80.178 38.1973H80.7795L83.4781 48.5731L86.1682 38.1973H86.9034L83.9292 49.6895H83.0269L80.4787 39.8965L77.9306 49.6895H77.045Z" fill="black" fill-opacity="0.2"/>
<path d="M104.069 38.1973H105.055L109.316 49.6895H108.556L107.561 47.0053H101.571L100.577 49.6895H99.8083L104.069 38.1973ZM101.83 46.2993H107.294L104.562 38.9361L101.83 46.2993Z" fill="#131313"/>
<path d="M104.069 38.1973H105.055L109.316 49.6895H108.556L107.561 47.0053H101.571L100.577 49.6895H99.8083L104.069 38.1973ZM101.83 46.2993H107.294L104.562 38.9361L101.83 46.2993Z" fill="black" fill-opacity="0.2"/>
<path d="M104.069 38.1973H105.055L109.316 49.6895H108.556L107.561 47.0053H101.571L100.577 49.6895H99.8083L104.069 38.1973ZM101.83 46.2993H107.294L104.562 38.9361L101.83 46.2993Z" fill="black" fill-opacity="0.2"/>
<path d="M129.767 38.1973H130.611L126.709 44.477V49.6895H125.991V44.477L122.097 38.1973H122.941L126.35 43.6971L129.767 38.1973Z" fill="#131313"/>
<path d="M129.767 38.1973H130.611L126.709 44.477V49.6895H125.991V44.477L122.097 38.1973H122.941L126.35 43.6971L129.767 38.1973Z" fill="black" fill-opacity="0.2"/>
<path d="M129.767 38.1973H130.611L126.709 44.477V49.6895H125.991V44.477L122.097 38.1973H122.941L126.35 43.6971L129.767 38.1973Z" fill="black" fill-opacity="0.2"/>
<path d="M0 27.829H4.32949V1.24376H0V0.699613H12.5594V1.24376H8.22994V27.829H12.5594V28.3732H0V27.829Z" fill="#131313"/>
<path d="M0 27.829H4.32949V1.24376H0V0.699613H12.5594V1.24376H8.22994V27.829H12.5594V28.3732H0V27.829Z" fill="black" fill-opacity="0.2"/>
<path d="M0 27.829H4.32949V1.24376H0V0.699613H12.5594V1.24376H8.22994V27.829H12.5594V28.3732H0V27.829Z" fill="black" fill-opacity="0.2"/>
<path d="M15.4802 27.829H19.8096V1.24376H15.4802V0.699613H23.8271L37.0106 21.8823H37.0886V1.24376H32.7591V0.699613H42.0032V1.24376H37.6737V28.9173H36.8936L20.4727 2.83732H20.3947V27.829H24.7242V28.3732H15.4802V27.829Z" fill="#131313"/>
<path d="M15.4802 27.829H19.8096V1.24376H15.4802V0.699613H23.8271L37.0106 21.8823H37.0886V1.24376H32.7591V0.699613H42.0032V1.24376H37.6737V28.9173H36.8936L20.4727 2.83732H20.3947V27.829H24.7242V28.3732H15.4802V27.829Z" fill="black" fill-opacity="0.2"/>
<path d="M15.4802 27.829H19.8096V1.24376H15.4802V0.699613H23.8271L37.0106 21.8823H37.0886V1.24376H32.7591V0.699613H42.0032V1.24376H37.6737V28.9173H36.8936L20.4727 2.83732H20.3947V27.829H24.7242V28.3732H15.4802V27.829Z" fill="black" fill-opacity="0.2"/>
<path d="M43.6692 20.0167H44.0982C44.3843 21.4159 44.7483 22.5949 45.1904 23.5536C45.6584 24.5124 46.1655 25.3027 46.7115 25.9245C47.2576 26.5464 47.8297 27.0258 48.4277 27.3626C49.0258 27.6995 49.6239 27.9457 50.2219 28.1011C50.846 28.2566 51.4311 28.3473 51.9771 28.3732C52.5492 28.3991 53.0823 28.4121 53.5763 28.4121C54.9545 28.4121 56.0856 28.2048 56.9697 27.7902C57.8538 27.3756 58.5559 26.8574 59.076 26.2355C59.596 25.5877 59.9601 24.901 60.1681 24.1755C60.3761 23.4241 60.4801 22.7374 60.4801 22.1155C60.4801 21.2086 60.3111 20.4313 59.9731 19.7835C59.635 19.1357 59.206 18.5916 58.6859 18.1511C58.1659 17.6847 57.5938 17.3089 56.9697 17.0239C56.3716 16.7389 55.7996 16.5186 55.2535 16.3632L50.768 15.0028C48.6618 14.355 47.0626 13.4999 45.9705 12.4376C44.9043 11.3752 44.3713 9.95005 44.3713 8.16215C44.3713 6.99613 44.5793 5.9208 44.9953 4.93616C45.4114 3.92561 45.9965 3.05757 46.7505 2.33204C47.5046 1.60652 48.4017 1.03646 49.4419 0.621877C50.508 0.207292 51.6651 0 52.9132 0C53.8234 0 54.5774 0.0777345 55.1755 0.233204C55.7996 0.388673 56.3326 0.570054 56.7747 0.777347C57.2167 0.958729 57.6068 1.12715 57.9448 1.28262C58.3089 1.43809 58.6729 1.51583 59.0369 1.51583C59.375 1.51583 59.596 1.47696 59.7 1.39923C59.83 1.29558 59.9991 1.06238 60.2071 0.699613H60.7531V7.73461H60.2851C60.1291 6.80179 59.856 5.90784 59.466 5.05276C59.102 4.17177 58.6209 3.40737 58.0228 2.75958C57.4248 2.08588 56.6967 1.55469 55.8386 1.16602C55.0065 0.751436 54.0314 0.544143 52.9132 0.544143C52.2892 0.544143 51.6001 0.634833 50.846 0.816214C50.0919 0.971684 49.3899 1.25671 48.7398 1.6713C48.0897 2.08588 47.5436 2.63003 47.1016 3.30373C46.6855 3.97743 46.4775 4.83251 46.4775 5.86897C46.4775 6.69814 46.6465 7.41071 46.9846 8.00668C47.3226 8.57674 47.7517 9.06906 48.2717 9.48364C48.8178 9.87232 49.4159 10.2092 50.0659 10.4942C50.742 10.7533 51.4181 10.9865 52.0942 11.1938L56.8137 12.6708C57.3078 12.8262 57.9318 13.0335 58.6859 13.2926C59.44 13.5518 60.1681 13.9404 60.8702 14.4587C61.5982 14.9769 62.2093 15.6636 62.7034 16.5186C63.2234 17.3737 63.4835 18.462 63.4835 19.7835C63.4835 21.0013 63.2494 22.1674 62.7814 23.2816C62.3393 24.3699 61.6893 25.3415 60.8312 26.1966C59.9731 27.0258 58.9329 27.6995 57.7108 28.2177C56.4887 28.71 55.1105 28.9562 53.5763 28.9562C53.0303 28.9562 52.5492 28.9432 52.1332 28.9173C51.7171 28.9173 51.3271 28.8914 50.963 28.8396C50.599 28.7878 50.2349 28.723 49.8709 28.6453C49.5069 28.5934 49.1038 28.5028 48.6618 28.3732C48.1417 28.2177 47.5826 28.0363 46.9846 27.829C46.3865 27.6218 45.8664 27.5181 45.4244 27.5181C45.0344 27.5181 44.7613 27.5958 44.6053 27.7513C44.4753 27.9068 44.3583 28.1141 44.2543 28.3732H43.6692V20.0167Z" fill="#131313"/>
<path d="M43.6692 20.0167H44.0982C44.3843 21.4159 44.7483 22.5949 45.1904 23.5536C45.6584 24.5124 46.1655 25.3027 46.7115 25.9245C47.2576 26.5464 47.8297 27.0258 48.4277 27.3626C49.0258 27.6995 49.6239 27.9457 50.2219 28.1011C50.846 28.2566 51.4311 28.3473 51.9771 28.3732C52.5492 28.3991 53.0823 28.4121 53.5763 28.4121C54.9545 28.4121 56.0856 28.2048 56.9697 27.7902C57.8538 27.3756 58.5559 26.8574 59.076 26.2355C59.596 25.5877 59.9601 24.901 60.1681 24.1755C60.3761 23.4241 60.4801 22.7374 60.4801 22.1155C60.4801 21.2086 60.3111 20.4313 59.9731 19.7835C59.635 19.1357 59.206 18.5916 58.6859 18.1511C58.1659 17.6847 57.5938 17.3089 56.9697 17.0239C56.3716 16.7389 55.7996 16.5186 55.2535 16.3632L50.768 15.0028C48.6618 14.355 47.0626 13.4999 45.9705 12.4376C44.9043 11.3752 44.3713 9.95005 44.3713 8.16215C44.3713 6.99613 44.5793 5.9208 44.9953 4.93616C45.4114 3.92561 45.9965 3.05757 46.7505 2.33204C47.5046 1.60652 48.4017 1.03646 49.4419 0.621877C50.508 0.207292 51.6651 0 52.9132 0C53.8234 0 54.5774 0.0777345 55.1755 0.233204C55.7996 0.388673 56.3326 0.570054 56.7747 0.777347C57.2167 0.958729 57.6068 1.12715 57.9448 1.28262C58.3089 1.43809 58.6729 1.51583 59.0369 1.51583C59.375 1.51583 59.596 1.47696 59.7 1.39923C59.83 1.29558 59.9991 1.06238 60.2071 0.699613H60.7531V7.73461H60.2851C60.1291 6.80179 59.856 5.90784 59.466 5.05276C59.102 4.17177 58.6209 3.40737 58.0228 2.75958C57.4248 2.08588 56.6967 1.55469 55.8386 1.16602C55.0065 0.751436 54.0314 0.544143 52.9132 0.544143C52.2892 0.544143 51.6001 0.634833 50.846 0.816214C50.0919 0.971684 49.3899 1.25671 48.7398 1.6713C48.0897 2.08588 47.5436 2.63003 47.1016 3.30373C46.6855 3.97743 46.4775 4.83251 46.4775 5.86897C46.4775 6.69814 46.6465 7.41071 46.9846 8.00668C47.3226 8.57674 47.7517 9.06906 48.2717 9.48364C48.8178 9.87232 49.4159 10.2092 50.0659 10.4942C50.742 10.7533 51.4181 10.9865 52.0942 11.1938L56.8137 12.6708C57.3078 12.8262 57.9318 13.0335 58.6859 13.2926C59.44 13.5518 60.1681 13.9404 60.8702 14.4587C61.5982 14.9769 62.2093 15.6636 62.7034 16.5186C63.2234 17.3737 63.4835 18.462 63.4835 19.7835C63.4835 21.0013 63.2494 22.1674 62.7814 23.2816C62.3393 24.3699 61.6893 25.3415 60.8312 26.1966C59.9731 27.0258 58.9329 27.6995 57.7108 28.2177C56.4887 28.71 55.1105 28.9562 53.5763 28.9562C53.0303 28.9562 52.5492 28.9432 52.1332 28.9173C51.7171 28.9173 51.3271 28.8914 50.963 28.8396C50.599 28.7878 50.2349 28.723 49.8709 28.6453C49.5069 28.5934 49.1038 28.5028 48.6618 28.3732C48.1417 28.2177 47.5826 28.0363 46.9846 27.829C46.3865 27.6218 45.8664 27.5181 45.4244 27.5181C45.0344 27.5181 44.7613 27.5958 44.6053 27.7513C44.4753 27.9068 44.3583 28.1141 44.2543 28.3732H43.6692V20.0167Z" fill="black" fill-opacity="0.2"/>
<path d="M43.6692 20.0167H44.0982C44.3843 21.4159 44.7483 22.5949 45.1904 23.5536C45.6584 24.5124 46.1655 25.3027 46.7115 25.9245C47.2576 26.5464 47.8297 27.0258 48.4277 27.3626C49.0258 27.6995 49.6239 27.9457 50.2219 28.1011C50.846 28.2566 51.4311 28.3473 51.9771 28.3732C52.5492 28.3991 53.0823 28.4121 53.5763 28.4121C54.9545 28.4121 56.0856 28.2048 56.9697 27.7902C57.8538 27.3756 58.5559 26.8574 59.076 26.2355C59.596 25.5877 59.9601 24.901 60.1681 24.1755C60.3761 23.4241 60.4801 22.7374 60.4801 22.1155C60.4801 21.2086 60.3111 20.4313 59.9731 19.7835C59.635 19.1357 59.206 18.5916 58.6859 18.1511C58.1659 17.6847 57.5938 17.3089 56.9697 17.0239C56.3716 16.7389 55.7996 16.5186 55.2535 16.3632L50.768 15.0028C48.6618 14.355 47.0626 13.4999 45.9705 12.4376C44.9043 11.3752 44.3713 9.95005 44.3713 8.16215C44.3713 6.99613 44.5793 5.9208 44.9953 4.93616C45.4114 3.92561 45.9965 3.05757 46.7505 2.33204C47.5046 1.60652 48.4017 1.03646 49.4419 0.621877C50.508 0.207292 51.6651 0 52.9132 0C53.8234 0 54.5774 0.0777345 55.1755 0.233204C55.7996 0.388673 56.3326 0.570054 56.7747 0.777347C57.2167 0.958729 57.6068 1.12715 57.9448 1.28262C58.3089 1.43809 58.6729 1.51583 59.0369 1.51583C59.375 1.51583 59.596 1.47696 59.7 1.39923C59.83 1.29558 59.9991 1.06238 60.2071 0.699613H60.7531V7.73461H60.2851C60.1291 6.80179 59.856 5.90784 59.466 5.05276C59.102 4.17177 58.6209 3.40737 58.0228 2.75958C57.4248 2.08588 56.6967 1.55469 55.8386 1.16602C55.0065 0.751436 54.0314 0.544143 52.9132 0.544143C52.2892 0.544143 51.6001 0.634833 50.846 0.816214C50.0919 0.971684 49.3899 1.25671 48.7398 1.6713C48.0897 2.08588 47.5436 2.63003 47.1016 3.30373C46.6855 3.97743 46.4775 4.83251 46.4775 5.86897C46.4775 6.69814 46.6465 7.41071 46.9846 8.00668C47.3226 8.57674 47.7517 9.06906 48.2717 9.48364C48.8178 9.87232 49.4159 10.2092 50.0659 10.4942C50.742 10.7533 51.4181 10.9865 52.0942 11.1938L56.8137 12.6708C57.3078 12.8262 57.9318 13.0335 58.6859 13.2926C59.44 13.5518 60.1681 13.9404 60.8702 14.4587C61.5982 14.9769 62.2093 15.6636 62.7034 16.5186C63.2234 17.3737 63.4835 18.462 63.4835 19.7835C63.4835 21.0013 63.2494 22.1674 62.7814 23.2816C62.3393 24.3699 61.6893 25.3415 60.8312 26.1966C59.9731 27.0258 58.9329 27.6995 57.7108 28.2177C56.4887 28.71 55.1105 28.9562 53.5763 28.9562C53.0303 28.9562 52.5492 28.9432 52.1332 28.9173C51.7171 28.9173 51.3271 28.8914 50.963 28.8396C50.599 28.7878 50.2349 28.723 49.8709 28.6453C49.5069 28.5934 49.1038 28.5028 48.6618 28.3732C48.1417 28.2177 47.5826 28.0363 46.9846 27.829C46.3865 27.6218 45.8664 27.5181 45.4244 27.5181C45.0344 27.5181 44.7613 27.5958 44.6053 27.7513C44.4753 27.9068 44.3583 28.1141 44.2543 28.3732H43.6692V20.0167Z" fill="black" fill-opacity="0.2"/>
<path d="M64.7412 27.829H69.0707V1.24376H64.7412V0.699613H77.3006V1.24376H72.9711V27.829H77.3006V28.3732H64.7412V27.829Z" fill="#131313"/>
<path d="M64.7412 27.829H69.0707V1.24376H64.7412V0.699613H77.3006V1.24376H72.9711V27.829H77.3006V28.3732H64.7412V27.829Z" fill="black" fill-opacity="0.2"/>
<path d="M64.7412 27.829H69.0707V1.24376H64.7412V0.699613H77.3006V1.24376H72.9711V27.829H77.3006V28.3732H64.7412V27.829Z" fill="black" fill-opacity="0.2"/>
<path d="M88.8023 27.829C89.2444 27.8809 89.7514 27.9197 90.3235 27.9457C90.9216 27.9716 91.5717 27.9845 92.2737 27.9845C93.1578 27.9845 94.0289 27.9456 94.887 27.8679C95.7711 27.7643 96.6032 27.5699 97.3833 27.2849C98.1894 26.974 98.9305 26.5464 99.6066 26.0023C100.309 25.4322 100.933 24.6937 101.479 23.7868C102.311 22.3876 102.883 20.9625 103.195 19.5114C103.533 18.0345 103.702 16.4279 103.702 14.6919C103.702 12.6449 103.507 10.7922 103.117 9.13383C102.727 7.44958 102.077 6.02445 101.167 4.85842C100.283 3.66649 99.0995 2.74663 97.6173 2.09884C96.1352 1.45105 94.302 1.12715 92.1177 1.12715C91.4676 1.12715 90.8696 1.14011 90.3235 1.16602C89.8035 1.19193 89.2964 1.21784 88.8023 1.24376V27.829ZM80.5724 27.829H84.9019V1.24376H80.5724V0.699613H87.8272C88.1913 0.699613 88.5553 0.699613 88.9193 0.699613C89.2834 0.6737 89.6474 0.647788 90.0115 0.621877C90.3755 0.621877 90.7396 0.621877 91.1036 0.621877C91.4676 0.595966 91.8317 0.58301 92.1957 0.58301C92.9758 0.58301 93.6649 0.595966 94.263 0.621877C94.887 0.647788 95.4591 0.699612 95.9792 0.777347C96.5252 0.829171 97.0323 0.919862 97.5003 1.04942C97.9944 1.15306 98.5145 1.29558 99.0605 1.47696C100.647 1.99519 102.012 2.6948 103.156 3.5758C104.326 4.43088 105.275 5.42848 106.003 6.56859C106.757 7.7087 107.303 8.95245 107.641 10.2999C108.006 11.6473 108.188 13.0594 108.188 14.5364C108.188 16.2466 107.98 17.7883 107.563 19.1616C107.147 20.509 106.575 21.7139 105.847 22.7763C105.119 23.8128 104.261 24.7197 103.273 25.497C102.311 26.2484 101.271 26.8574 100.153 27.3238C99.5286 27.6088 98.9305 27.829 98.3584 27.9845C97.8124 28.14 97.2403 28.2566 96.6422 28.3343C96.0702 28.4121 95.4331 28.4639 94.731 28.4898C94.0289 28.5157 93.2228 28.5287 92.3127 28.5287C91.9227 28.5287 91.5066 28.5157 91.0646 28.4898C90.6225 28.4898 90.1805 28.4768 89.7384 28.4509C89.2964 28.425 88.8543 28.3991 88.4123 28.3732C87.9962 28.3732 87.5932 28.3732 87.2032 28.3732H80.5724V27.829Z" fill="#131313"/>
<path d="M88.8023 27.829C89.2444 27.8809 89.7514 27.9197 90.3235 27.9457C90.9216 27.9716 91.5717 27.9845 92.2737 27.9845C93.1578 27.9845 94.0289 27.9456 94.887 27.8679C95.7711 27.7643 96.6032 27.5699 97.3833 27.2849C98.1894 26.974 98.9305 26.5464 99.6066 26.0023C100.309 25.4322 100.933 24.6937 101.479 23.7868C102.311 22.3876 102.883 20.9625 103.195 19.5114C103.533 18.0345 103.702 16.4279 103.702 14.6919C103.702 12.6449 103.507 10.7922 103.117 9.13383C102.727 7.44958 102.077 6.02445 101.167 4.85842C100.283 3.66649 99.0995 2.74663 97.6173 2.09884C96.1352 1.45105 94.302 1.12715 92.1177 1.12715C91.4676 1.12715 90.8696 1.14011 90.3235 1.16602C89.8035 1.19193 89.2964 1.21784 88.8023 1.24376V27.829ZM80.5724 27.829H84.9019V1.24376H80.5724V0.699613H87.8272C88.1913 0.699613 88.5553 0.699613 88.9193 0.699613C89.2834 0.6737 89.6474 0.647788 90.0115 0.621877C90.3755 0.621877 90.7396 0.621877 91.1036 0.621877C91.4676 0.595966 91.8317 0.58301 92.1957 0.58301C92.9758 0.58301 93.6649 0.595966 94.263 0.621877C94.887 0.647788 95.4591 0.699612 95.9792 0.777347C96.5252 0.829171 97.0323 0.919862 97.5003 1.04942C97.9944 1.15306 98.5145 1.29558 99.0605 1.47696C100.647 1.99519 102.012 2.6948 103.156 3.5758C104.326 4.43088 105.275 5.42848 106.003 6.56859C106.757 7.7087 107.303 8.95245 107.641 10.2999C108.006 11.6473 108.188 13.0594 108.188 14.5364C108.188 16.2466 107.98 17.7883 107.563 19.1616C107.147 20.509 106.575 21.7139 105.847 22.7763C105.119 23.8128 104.261 24.7197 103.273 25.497C102.311 26.2484 101.271 26.8574 100.153 27.3238C99.5286 27.6088 98.9305 27.829 98.3584 27.9845C97.8124 28.14 97.2403 28.2566 96.6422 28.3343C96.0702 28.4121 95.4331 28.4639 94.731 28.4898C94.0289 28.5157 93.2228 28.5287 92.3127 28.5287C91.9227 28.5287 91.5066 28.5157 91.0646 28.4898C90.6225 28.4898 90.1805 28.4768 89.7384 28.4509C89.2964 28.425 88.8543 28.3991 88.4123 28.3732C87.9962 28.3732 87.5932 28.3732 87.2032 28.3732H80.5724V27.829Z" fill="black" fill-opacity="0.2"/>
<path d="M88.8023 27.829C89.2444 27.8809 89.7514 27.9197 90.3235 27.9457C90.9216 27.9716 91.5717 27.9845 92.2737 27.9845C93.1578 27.9845 94.0289 27.9456 94.887 27.8679C95.7711 27.7643 96.6032 27.5699 97.3833 27.2849C98.1894 26.974 98.9305 26.5464 99.6066 26.0023C100.309 25.4322 100.933 24.6937 101.479 23.7868C102.311 22.3876 102.883 20.9625 103.195 19.5114C103.533 18.0345 103.702 16.4279 103.702 14.6919C103.702 12.6449 103.507 10.7922 103.117 9.13383C102.727 7.44958 102.077 6.02445 101.167 4.85842C100.283 3.66649 99.0995 2.74663 97.6173 2.09884C96.1352 1.45105 94.302 1.12715 92.1177 1.12715C91.4676 1.12715 90.8696 1.14011 90.3235 1.16602C89.8035 1.19193 89.2964 1.21784 88.8023 1.24376V27.829ZM80.5724 27.829H84.9019V1.24376H80.5724V0.699613H87.8272C88.1913 0.699613 88.5553 0.699613 88.9193 0.699613C89.2834 0.6737 89.6474 0.647788 90.0115 0.621877C90.3755 0.621877 90.7396 0.621877 91.1036 0.621877C91.4676 0.595966 91.8317 0.58301 92.1957 0.58301C92.9758 0.58301 93.6649 0.595966 94.263 0.621877C94.887 0.647788 95.4591 0.699612 95.9792 0.777347C96.5252 0.829171 97.0323 0.919862 97.5003 1.04942C97.9944 1.15306 98.5145 1.29558 99.0605 1.47696C100.647 1.99519 102.012 2.6948 103.156 3.5758C104.326 4.43088 105.275 5.42848 106.003 6.56859C106.757 7.7087 107.303 8.95245 107.641 10.2999C108.006 11.6473 108.188 13.0594 108.188 14.5364C108.188 16.2466 107.98 17.7883 107.563 19.1616C107.147 20.509 106.575 21.7139 105.847 22.7763C105.119 23.8128 104.261 24.7197 103.273 25.497C102.311 26.2484 101.271 26.8574 100.153 27.3238C99.5286 27.6088 98.9305 27.829 98.3584 27.9845C97.8124 28.14 97.2403 28.2566 96.6422 28.3343C96.0702 28.4121 95.4331 28.4639 94.731 28.4898C94.0289 28.5157 93.2228 28.5287 92.3127 28.5287C91.9227 28.5287 91.5066 28.5157 91.0646 28.4898C90.6225 28.4898 90.1805 28.4768 89.7384 28.4509C89.2964 28.425 88.8543 28.3991 88.4123 28.3732C87.9962 28.3732 87.5932 28.3732 87.2032 28.3732H80.5724V27.829Z" fill="black" fill-opacity="0.2"/>
<path d="M109.899 27.829H114.228V1.24376H109.899V0.699613H132.209V7.42367H131.78C131.442 6.41312 131.078 5.53212 130.688 4.78069C130.298 4.00334 129.83 3.35555 129.284 2.83732C128.738 2.29318 128.088 1.89155 127.334 1.63243C126.58 1.37331 125.669 1.24376 124.603 1.24376H118.129V13.2538H120.664C121.522 13.2538 122.25 13.176 122.848 13.0206C123.446 12.8651 123.953 12.5801 124.369 12.1655C124.811 11.725 125.175 11.142 125.461 10.4165C125.773 9.66502 126.073 8.70629 126.359 7.54027H126.788V19.628H126.359C126.177 18.8766 125.982 18.1511 125.773 17.4515C125.591 16.7518 125.318 16.13 124.954 15.5858C124.616 15.0417 124.148 14.6141 123.55 14.3032C122.978 13.9663 122.224 13.7979 121.288 13.7979H118.129V27.829H125.5C126.931 27.829 128.114 27.5311 129.05 26.9351C130.012 26.3132 130.792 25.5877 131.39 24.7585C131.988 23.9034 132.43 23.0224 132.716 22.1155C133.002 21.2086 133.184 20.4572 133.262 19.8612H133.691V28.3732H109.899V27.829Z" fill="#131313"/>
<path d="M109.899 27.829H114.228V1.24376H109.899V0.699613H132.209V7.42367H131.78C131.442 6.41312 131.078 5.53212 130.688 4.78069C130.298 4.00334 129.83 3.35555 129.284 2.83732C128.738 2.29318 128.088 1.89155 127.334 1.63243C126.58 1.37331 125.669 1.24376 124.603 1.24376H118.129V13.2538H120.664C121.522 13.2538 122.25 13.176 122.848 13.0206C123.446 12.8651 123.953 12.5801 124.369 12.1655C124.811 11.725 125.175 11.142 125.461 10.4165C125.773 9.66502 126.073 8.70629 126.359 7.54027H126.788V19.628H126.359C126.177 18.8766 125.982 18.1511 125.773 17.4515C125.591 16.7518 125.318 16.13 124.954 15.5858C124.616 15.0417 124.148 14.6141 123.55 14.3032C122.978 13.9663 122.224 13.7979 121.288 13.7979H118.129V27.829H125.5C126.931 27.829 128.114 27.5311 129.05 26.9351C130.012 26.3132 130.792 25.5877 131.39 24.7585C131.988 23.9034 132.43 23.0224 132.716 22.1155C133.002 21.2086 133.184 20.4572 133.262 19.8612H133.691V28.3732H109.899V27.829Z" fill="black" fill-opacity="0.2"/>
<path d="M109.899 27.829H114.228V1.24376H109.899V0.699613H132.209V7.42367H131.78C131.442 6.41312 131.078 5.53212 130.688 4.78069C130.298 4.00334 129.83 3.35555 129.284 2.83732C128.738 2.29318 128.088 1.89155 127.334 1.63243C126.58 1.37331 125.669 1.24376 124.603 1.24376H118.129V13.2538H120.664C121.522 13.2538 122.25 13.176 122.848 13.0206C123.446 12.8651 123.953 12.5801 124.369 12.1655C124.811 11.725 125.175 11.142 125.461 10.4165C125.773 9.66502 126.073 8.70629 126.359 7.54027H126.788V19.628H126.359C126.177 18.8766 125.982 18.1511 125.773 17.4515C125.591 16.7518 125.318 16.13 124.954 15.5858C124.616 15.0417 124.148 14.6141 123.55 14.3032C122.978 13.9663 122.224 13.7979 121.288 13.7979H118.129V27.829H125.5C126.931 27.829 128.114 27.5311 129.05 26.9351C130.012 26.3132 130.792 25.5877 131.39 24.7585C131.988 23.9034 132.43 23.0224 132.716 22.1155C133.002 21.2086 133.184 20.4572 133.262 19.8612H133.691V28.3732H109.899V27.829Z" fill="black" fill-opacity="0.2"/>
</svg>
